<?xml version="1.0" encoding="utf-8"?>
<svg viewBox="864.2517700195312 105.53047180175781 226.80023193359375 174.1000518798828" width="226.80023193359375" height="174.1000518798828" xmlns="http://www.w3.org/2000/svg"><g transform="matrix(1, 0, 0, 1, -251.04808044433594, -73.96952056884767)">
			<path fill="#CCCCCC" d="M1253.4,317.2c4.2-4.3,8-9,11.2-14.1c7.8-12.4,12.3-27.1,12.3-42.8c0-44.6-36.2-80.8-80.8-80.8&#10;&#9;&#9;&#9;&#9;c-44.6,0-80.8,36.2-80.8,80.8c0,44.6,36.2,80.8,80.8,80.8c20.9,0,40-7.9,54.3-21c1.7,11.1,6.8,26.4,21.5,29.1&#10;&#9;&#9;&#9;&#9;c23.6,4.4,29.2-11.2,29.8-19.9c0.6-8.7,8.1-6.2,15.5-1.2c7.5,5,24.9-2.5,22.4-5c-2.5-2.5-7.5-13.1-10.6-11.2&#10;&#9;&#9;&#9;&#9;c-3.1,1.9-11.8,6.8-16.8,0.6c-5-6.2-16.8-8.7-20.5,6.2c-3.7,14.9-9.9,24.2-20.5,16.2c-6.1-4.7-7-19.9-6.7-31.8&#10;&#9;&#9;&#9;&#9;C1261.4,308.2,1257.6,312.9,1253.4,317.2z M1248.5,318c-14.4,13.1-33,20.3-52.4,20.3c-43,0-78-35-78-78c0-43,35-78,78-78&#10;&#9;&#9;&#9;&#9;s78,35,78,78c0,14.7-4.1,29-11.9,41.3C1258.4,307.7,1253.8,313.2,1248.5,318z"/>
			<path fill="#CCCCCC" d="M1207.1,285.7c-0.2,0.6-0.3,1.2-0.4,1.9C1206.8,286.9,1206.9,286.2,1207.1,285.7z"/>
			<path fill="#CCCCCC" d="M1120.6,260.2c0,41.6,33.9,75.5,75.5,75.5c41.6,0,75.5-33.9,75.5-75.5s-33.9-75.5-75.5-75.5&#10;&#9;&#9;&#9;&#9;C1154.5,184.7,1120.6,218.6,1120.6,260.2z M1194.5,198.5c-0.4,0-0.8,0-1.3,0C1193.6,198.5,1194,198.5,1194.5,198.5z&#10;&#9;&#9;&#9;&#9; M1192.4,198.5c-0.2,0-0.4,0-0.6,0C1192,198.5,1192.2,198.5,1192.4,198.5z M1190.7,198.5c-0.2,0-0.4,0-0.6,0&#10;&#9;&#9;&#9;&#9;C1190.3,198.5,1190.5,198.5,1190.7,198.5z M1189,198.6c-0.2,0-0.4,0-0.5,0C1188.7,198.6,1188.9,198.6,1189,198.6z M1187.1,198.7&#10;&#9;&#9;&#9;&#9;c-0.1,0-0.1,0-0.2,0C1187,198.7,1187,198.7,1187.1,198.7z M1185.4,198.9c-0.2,0-0.3,0-0.4,0.1&#10;&#9;&#9;&#9;&#9;C1185.1,198.9,1185.2,198.9,1185.4,198.9z M1183.9,199.1c-0.2,0-0.3,0.1-0.5,0.1C1183.5,199.2,1183.7,199.1,1183.9,199.1z&#10;&#9;&#9;&#9;&#9; M1182.4,199.4c-0.2,0-0.3,0.1-0.5,0.1C1182.1,199.4,1182.3,199.4,1182.4,199.4z M1181,199.7c-0.1,0-0.3,0.1-0.4,0.1&#10;&#9;&#9;&#9;&#9;C1180.7,199.7,1180.9,199.7,1181,199.7z M1179.4,200.1C1179.4,200.1,1179.3,200.1,1179.4,200.1&#10;&#9;&#9;&#9;&#9;C1179.3,200.1,1179.4,200.1,1179.4,200.1z M1178.2,200.6c-0.1,0-0.2,0.1-0.3,0.1C1177.9,200.7,1178,200.6,1178.2,200.6z&#10;&#9;&#9;&#9;&#9; M1177.1,201c-0.1,0.1-0.2,0.1-0.4,0.2C1176.9,201.2,1177,201.1,1177.1,201z M1192.7,201.3c9.7,0,18.3,1.8,21,3&#10;&#9;&#9;&#9;&#9;c-0.7,2-3.3,6.9-7.6,12.6c-5.7,7.6-9.5,10.5-10.6,10.7c-2.1-0.4-9.2-6.7-14.7-14.5c-3.6-5.1-4.2-7.7-4.2-8.4&#10;&#9;&#9;&#9;&#9;C1178.2,203,1183.3,201.3,1192.7,201.3z M1213.5,282c-0.2,0-0.3,0-0.5,0C1213.1,282,1213.3,282,1213.5,282z M1212.4,282.1&#10;&#9;&#9;&#9;&#9;c-0.2,0-0.3,0-0.5,0C1212.1,282.1,1212.2,282.1,1212.4,282.1z M1211.4,282.2c-0.1,0-0.3,0-0.4,0.1&#10;&#9;&#9;&#9;&#9;C1211.1,282.2,1211.3,282.2,1211.4,282.2z M1210.5,282.4c-0.1,0-0.2,0-0.4,0.1C1210.3,282.4,1210.4,282.4,1210.5,282.4z&#10;&#9;&#9;&#9;&#9; M1209.7,282.6c-0.1,0-0.2,0.1-0.3,0.1C1209.5,282.6,1209.6,282.6,1209.7,282.6z M1209.9,317.8&#10;&#9;&#9;&#9;&#9;C1209.9,317.8,1209.9,317.8,1209.9,317.8C1209.9,317.8,1209.9,317.8,1209.9,317.8c-0.9-0.6-1.8-3.3-2.5-6.9&#10;&#9;&#9;&#9;&#9;C1208.1,314.5,1209,317.2,1209.9,317.8z M1207.1,285.7c-0.2,0.6-0.3,1.2-0.4,1.9C1206.8,286.9,1206.9,286.2,1207.1,285.7&#10;&#9;&#9;&#9;&#9;c0.3-1.1,0.8-2,1.3-2.4c0,0,0,0,0,0c0,0,0,0,0,0C1207.8,283.7,1207.4,284.5,1207.1,285.7z M1204.3,270.7c3-2.5,4.9-6.3,4.9-10.5&#10;&#9;&#9;&#9;&#9;c0-5.2-2.9-9.7-7.2-12c4.3,2.3,7.2,6.8,7.2,12C1209.2,264.5,1207.2,268.2,1204.3,270.7z M1209,282.8c-0.1,0-0.1,0.1-0.2,0.1&#10;&#9;&#9;&#9;&#9;C1208.9,282.9,1209,282.9,1209,282.8z M1195.5,246.6c-1.4,0-2.8,0.2-4.1,0.6C1192.7,246.8,1194.1,246.6,1195.5,246.6z&#10;&#9;&#9;&#9;&#9; M1193.4,229.8c0,0,0.1,0.1,0.1,0.1C1193.5,229.8,1193.5,229.8,1193.4,229.8z M1178.6,214.9c-0.6-0.8-1.1-1.6-1.6-2.3&#10;&#9;&#9;&#9;&#9;C1177.5,213.4,1178.1,214.2,1178.6,214.9c0.6,0.8,1.1,1.6,1.8,2.4C1179.8,216.5,1179.2,215.7,1178.6,214.9z M1180,282&#10;&#9;&#9;&#9;&#9;c-0.2-0.1-0.3-0.2-0.5-0.3C1179.6,281.9,1179.8,281.9,1180,282z M1179.2,281.7c-0.1,0-0.3-0.1-0.5-0.1&#10;&#9;&#9;&#9;&#9;C1178.9,281.6,1179.1,281.7,1179.2,281.7z M1178.5,281.5c-0.2,0-0.3-0.1-0.5-0.1C1178.1,281.5,1178.3,281.5,1178.5,281.5z&#10;&#9;&#9;&#9;&#9; M1177.6,281.4c-0.2,0-0.4,0-0.5,0C1177.3,281.4,1177.4,281.4,1177.6,281.4z M1176.6,281.4c-0.1,0-0.2,0-0.3,0&#10;&#9;&#9;&#9;&#9;C1176.3,281.4,1176.4,281.4,1176.6,281.4z M1176.1,201.6c-0.1,0.1-0.2,0.1-0.3,0.2C1175.9,201.7,1176,201.6,1176.1,201.6z&#10;&#9;&#9;&#9;&#9; M1175.3,202.2c-0.1,0.1-0.2,0.1-0.2,0.2C1175.1,202.3,1175.2,202.3,1175.3,202.2z M1175.6,281.5c-0.1,0-0.2,0-0.3,0&#10;&#9;&#9;&#9;&#9;C1175.4,281.5,1175.5,281.5,1175.6,281.5z M1174.3,203.1C1174.3,203.1,1174.3,203.1,1174.3,203.1&#10;&#9;&#9;&#9;&#9;C1174.3,203.1,1174.3,203.1,1174.3,203.1c-0.9,1-0.6,2.9,0.4,5.2C1173.7,206,1173.5,204.1,1174.3,203.1z M1174.2,281.6&#10;&#9;&#9;&#9;&#9;C1174.2,281.6,1174.2,281.6,1174.2,281.6C1174.2,281.6,1174.2,281.6,1174.2,281.6z M1173.1,281.8c-0.1,0-0.3,0-0.4,0.1&#10;&#9;&#9;&#9;&#9;C1172.9,281.8,1173,281.8,1173.1,281.8z M1171.9,282c-0.1,0-0.3,0.1-0.5,0.1C1171.6,282,1171.8,282,1171.9,282z M1170.7,282.2&#10;&#9;&#9;&#9;&#9;c-0.2,0-0.3,0.1-0.5,0.1C1170.4,282.3,1170.6,282.2,1170.7,282.2z M1164.7,239c0.7,1.3,1.3,2.7,1.9,4c0.4,0.9,0.7,1.7,1.1,2.6&#10;&#9;&#9;&#9;&#9;c0.3,0.8,0.6,1.6,0.9,2.4c1,3.1,1.4,5.6,0.8,6.9c0,0,0,0,0,0c0,0,0,0,0,0c0.6-1.3,0.2-3.8-0.8-6.9c-0.3-0.8-0.5-1.6-0.9-2.4&#10;&#9;&#9;&#9;&#9;c-0.3-0.8-0.7-1.7-1.1-2.6C1166,241.6,1165.4,240.3,1164.7,239c-0.4-0.9-0.9-1.8-1.4-2.6C1163.8,237.2,1164.3,238.1,1164.7,239z&#10;&#9;&#9;&#9;&#9; M1169.5,282.5c-0.2,0-0.3,0.1-0.5,0.1C1169.1,282.6,1169.3,282.5,1169.5,282.5z M1168.9,255.4c0,0,0.1-0.1,0.1-0.1&#10;&#9;&#9;&#9;&#9;C1169,255.3,1168.9,255.3,1168.9,255.4z M1168.6,255.7c0,0-0.1,0.1-0.1,0.1C1168.5,255.8,1168.6,255.8,1168.6,255.7z&#10;&#9;&#9;&#9;&#9; M1168.1,282.8c-0.1,0-0.3,0.1-0.4,0.1C1167.8,282.9,1168,282.9,1168.1,282.8z M1167.9,256.3&#10;&#9;&#9;&#9;&#9;C1167.9,256.3,1167.9,256.3,1167.9,256.3C1167.9,256.3,1167.9,256.3,1167.9,256.3z M1167.3,256.7c-0.1,0-0.1,0.1-0.2,0.1&#10;&#9;&#9;&#9;&#9;C1167.2,256.8,1167.2,256.8,1167.3,256.7z M1154.4,223.9c0,0-0.1,0-0.1,0C1154.3,223.9,1154.3,223.9,1154.4,223.9z M1154,223.8&#10;&#9;&#9;&#9;&#9;L1154,223.8L1154,223.8C1154,223.8,1154,223.8,1154,223.8z M1153.7,223.8c-0.1,0-0.1,0-0.2,0&#10;&#9;&#9;&#9;&#9;C1153.6,223.9,1153.7,223.9,1153.7,223.8z M1153.3,224c-0.1,0-0.2,0.1-0.3,0.1C1153.1,224.1,1153.2,224,1153.3,224z&#10;&#9;&#9;&#9;&#9; M1152.7,224.3c-0.1,0.1-0.2,0.1-0.3,0.2C1152.5,224.4,1152.6,224.3,1152.7,224.3z M1152.1,224.7c-0.1,0.1-0.2,0.2-0.3,0.3&#10;&#9;&#9;&#9;&#9;C1151.9,224.9,1152,224.8,1152.1,224.7z M1151.5,225.3c-0.1,0.1-0.2,0.2-0.4,0.3C1151.2,225.5,1151.4,225.4,1151.5,225.3z&#10;&#9;&#9;&#9;&#9; M1150.8,226c-0.1,0.1-0.3,0.3-0.4,0.4C1150.5,226.3,1150.6,226.1,1150.8,226z M1150,226.8c-0.1,0.2-0.3,0.3-0.4,0.5&#10;&#9;&#9;&#9;&#9;C1149.7,227.1,1149.9,227,1150,226.8z M1149.2,227.7c-0.2,0.2-0.3,0.4-0.5,0.6C1148.9,228.1,1149.1,227.9,1149.2,227.7z&#10;&#9;&#9;&#9;&#9; M1148.4,228.8c-0.2,0.2-0.3,0.4-0.5,0.6C1148,229.2,1148.2,229,1148.4,228.8z M1147.5,229.9c-0.2,0.2-0.3,0.4-0.5,0.7&#10;&#9;&#9;&#9;&#9;C1147.2,230.4,1147.3,230.1,1147.5,229.9z M1146.6,231.2c-0.2,0.2-0.3,0.4-0.5,0.7C1146.3,231.6,1146.4,231.4,1146.6,231.2z&#10;&#9;&#9;&#9;&#9; M1145.7,232.5c-0.2,0.2-0.3,0.5-0.5,0.7C1145.4,232.9,1145.5,232.7,1145.7,232.5z M1144.8,233.8c-0.2,0.2-0.3,0.5-0.5,0.7&#10;&#9;&#9;&#9;&#9;C1144.4,234.3,1144.6,234.1,1144.8,233.8z M1143.8,235.3c-0.2,0.3-0.3,0.5-0.5,0.8C1143.5,235.8,1143.7,235.5,1143.8,235.3z&#10;&#9;&#9;&#9;&#9; M1142.9,236.8c-0.2,0.3-0.3,0.5-0.5,0.8C1142.6,237.3,1142.8,237,1142.9,236.8z M1142,238.3c-0.1,0.3-0.3,0.5-0.4,0.8&#10;&#9;&#9;&#9;&#9;C1141.7,238.8,1141.9,238.6,1142,238.3z M1141.2,239.9c-0.1,0.3-0.3,0.5-0.4,0.8C1140.9,240.4,1141,240.1,1141.2,239.9z&#10;&#9;&#9;&#9;&#9; M1140.3,241.5c-0.1,0.3-0.3,0.5-0.4,0.8C1140,242,1140.2,241.8,1140.3,241.5z M1139.5,243.1c-0.1,0.2-0.2,0.5-0.4,0.7&#10;&#9;&#9;&#9;&#9;C1139.2,243.6,1139.4,243.4,1139.5,243.1z M1138.7,244.7c-0.1,0.2-0.2,0.5-0.3,0.7C1138.5,245.2,1138.6,245,1138.7,244.7z&#10;&#9;&#9;&#9;&#9; M1138,246.3c-0.1,0.2-0.2,0.5-0.3,0.7C1137.8,246.8,1137.9,246.6,1138,246.3z M1136.7,249.5c-0.1,0.2-0.2,0.4-0.2,0.7&#10;&#9;&#9;&#9;&#9;C1136.5,250,1136.6,249.8,1136.7,249.5z M1134.8,258.6c0-0.1,0-0.3,0-0.4C1134.8,258.3,1134.8,258.5,1134.8,258.6z M1134.9,259.4&#10;&#9;&#9;&#9;&#9;c0,0.1,0,0.2,0,0.4C1134.9,259.7,1134.9,259.5,1134.9,259.4z M1134.8,257.4c0-0.2,0-0.3,0.1-0.5&#10;&#9;&#9;&#9;&#9;C1134.9,257,1134.9,257.2,1134.8,257.4z M1135.1,255.5c0,0.2-0.1,0.4-0.1,0.5C1135,255.9,1135,255.7,1135.1,255.5z M1135,260.6&#10;&#9;&#9;&#9;&#9;c0,0.1,0,0.2,0,0.3C1135.1,260.8,1135.1,260.7,1135,260.6z M1135.2,254.7c0-0.2,0.1-0.4,0.1-0.6&#10;&#9;&#9;&#9;&#9;C1135.3,254.3,1135.3,254.5,1135.2,254.7z M1135.6,253.2c0.1-0.2,0.1-0.4,0.2-0.6C1135.7,252.8,1135.6,253,1135.6,253.2z&#10;&#9;&#9;&#9;&#9; M1136.2,251.1c-0.1,0.2-0.1,0.4-0.2,0.6C1136,251.5,1136.1,251.3,1136.2,251.1z M1136,262.5c0.1,0.1,0.1,0.1,0.2,0.2&#10;&#9;&#9;&#9;&#9;C1136.1,262.6,1136.1,262.6,1136,262.5z M1136.4,262.8c0.1,0.1,0.2,0.1,0.3,0.2C1136.7,263,1136.6,262.9,1136.4,262.8z&#10;&#9;&#9;&#9;&#9; M1137.3,248c-0.1,0.2-0.2,0.5-0.3,0.7C1137.1,248.4,1137.2,248.2,1137.3,248z M1137.1,263.2c0.1,0.1,0.3,0.1,0.4,0.2&#10;&#9;&#9;&#9;&#9;C1137.3,263.3,1137.2,263.2,1137.1,263.2z M1137.8,263.4c0.2,0,0.3,0.1,0.5,0.1C1138.2,263.5,1138,263.4,1137.8,263.4z&#10;&#9;&#9;&#9;&#9; M1138.7,263.6c0.2,0,0.3,0.1,0.5,0.1C1139.1,263.6,1138.9,263.6,1138.7,263.6z M1139.8,263.7c0.2,0,0.3,0,0.5,0&#10;&#9;&#9;&#9;&#9;C1140.1,263.7,1140,263.7,1139.8,263.7z M1141,263.8c0.1,0,0.3,0,0.4,0C1141.3,263.8,1141.1,263.8,1141,263.8z M1137.9,260.5&#10;&#9;&#9;&#9;&#9;c-1.2-3.1,1-10.5,5.5-18.8c4.2-7.7,8.5-13.1,10.4-14.7c1.5,1.5,4.7,6,8,12.4c4.3,8.5,5.2,13.2,5,14.2c-1.8,2.4-16.4,7.4-25.3,7.4&#10;&#9;&#9;&#9;&#9;C1139.1,261,1138.2,260.6,1137.9,260.5z M1166.6,283.2c-0.1,0-0.1,0-0.2,0C1166.5,283.3,1166.5,283.3,1166.6,283.2z&#10;&#9;&#9;&#9;&#9; M1166.3,257.4c0.1,0,0.2-0.1,0.2-0.1C1166.5,257.3,1166.4,257.3,1166.3,257.4z M1165.5,257.8&#10;&#9;&#9;&#9;&#9;C1165.5,257.8,1165.4,257.8,1165.5,257.8C1165.4,257.8,1165.5,257.8,1165.5,257.8z M1165.1,283.7c-0.1,0-0.3,0.1-0.4,0.1&#10;&#9;&#9;&#9;&#9;C1164.8,283.7,1164.9,283.7,1165.1,283.7z M1164.5,258.3c-0.1,0-0.2,0.1-0.3,0.1C1164.3,258.4,1164.4,258.3,1164.5,258.3z&#10;&#9;&#9;&#9;&#9; M1163.7,284.1c-0.2,0.1-0.3,0.1-0.5,0.2C1163.4,284.2,1163.6,284.1,1163.7,284.1z M1163.2,258.9c0.1,0,0.2-0.1,0.3-0.1&#10;&#9;&#9;&#9;&#9;C1163.4,258.8,1163.3,258.8,1163.2,258.9z M1162.4,284.5c-0.2,0.1-0.3,0.1-0.5,0.2C1162.1,284.6,1162.2,284.6,1162.4,284.5z&#10;&#9;&#9;&#9;&#9; M1162.1,259.3C1162.1,259.3,1162.1,259.3,1162.1,259.3C1162.1,259.3,1162.1,259.3,1162.1,259.3z M1161.1,285&#10;&#9;&#9;&#9;&#9;c-0.2,0.1-0.3,0.1-0.5,0.2C1160.7,285.1,1160.9,285,1161.1,285z M1160.6,259.9c0.1,0,0.2-0.1,0.4-0.1&#10;&#9;&#9;&#9;&#9;C1160.8,259.8,1160.7,259.8,1160.6,259.9z M1159.4,260.3c0.1,0,0.2-0.1,0.3-0.1C1159.6,260.2,1159.5,260.3,1159.4,260.3z&#10;&#9;&#9;&#9;&#9; M1159.7,285.4c-0.1,0.1-0.3,0.1-0.4,0.2C1159.4,285.5,1159.5,285.5,1159.7,285.4z M1158.3,286c-0.1,0-0.2,0.1-0.3,0.1&#10;&#9;&#9;&#9;&#9;C1158.1,286,1158.2,286,1158.3,286z M1158.1,260.7C1158.1,260.7,1158.1,260.7,1158.1,260.7&#10;&#9;&#9;&#9;&#9;C1158.1,260.7,1158.1,260.7,1158.1,260.7z M1156.5,261.2c0.1,0,0.3-0.1,0.4-0.1C1156.7,261.1,1156.6,261.2,1156.5,261.2z&#10;&#9;&#9;&#9;&#9; M1156.7,286.6c-0.1,0-0.2,0.1-0.3,0.1C1156.5,286.6,1156.6,286.6,1156.7,286.6z M1155.5,287.1c-0.1,0.1-0.3,0.1-0.4,0.2&#10;&#9;&#9;&#9;&#9;C1155.3,287.2,1155.4,287.1,1155.5,287.1z M1155.1,261.6c0.1,0,0.3-0.1,0.4-0.1C1155.4,261.5,1155.3,261.6,1155.1,261.6z&#10;&#9;&#9;&#9;&#9; M1154.4,287.6c-0.1,0.1-0.3,0.1-0.4,0.2C1154.1,287.7,1154.2,287.6,1154.4,287.6z M1153.8,261.9&#10;&#9;&#9;&#9;&#9;C1153.8,261.9,1153.8,261.9,1153.8,261.9C1153.8,261.9,1153.8,261.9,1153.8,261.9z M1153.3,288.1c-0.1,0.1-0.3,0.1-0.4,0.2&#10;&#9;&#9;&#9;&#9;C1153,288.2,1153.1,288.1,1153.3,288.1z M1152.1,262.3c0.1,0,0.3-0.1,0.4-0.1C1152.4,262.3,1152.2,262.3,1152.1,262.3z&#10;&#9;&#9;&#9;&#9; M1152.2,288.6c-0.1,0.1-0.2,0.1-0.3,0.2C1152,288.7,1152.1,288.6,1152.2,288.6z M1151.1,289.1c-0.1,0-0.2,0.1-0.2,0.1&#10;&#9;&#9;&#9;&#9;C1151,289.2,1151.1,289.2,1151.1,289.1z M1150.7,262.6c0.1,0,0.3-0.1,0.4-0.1C1151,262.6,1150.9,262.6,1150.7,262.6z&#10;&#9;&#9;&#9;&#9; M1142.5,263.8c0.1,0,0.2,0,0.3,0C1142.7,263.7,1142.6,263.7,1142.5,263.8z M1143.7,263.7c0.1,0,0.2,0,0.3,0&#10;&#9;&#9;&#9;&#9;C1143.9,263.7,1143.8,263.7,1143.7,263.7z M1145.2,263.5C1145.2,263.5,1145.2,263.5,1145.2,263.5&#10;&#9;&#9;&#9;&#9;C1145.2,263.5,1145.2,263.5,1145.2,263.5z M1146.4,263.4c0.1,0,0.2,0,0.4-0.1C1146.7,263.4,1146.6,263.4,1146.4,263.4z&#10;&#9;&#9;&#9;&#9; M1146.9,292.7c0,0,0,0.1,0,0.2C1147,292.8,1146.9,292.8,1146.9,292.7z M1147.1,293.2c0,0.1,0.1,0.2,0.1,0.2&#10;&#9;&#9;&#9;&#9;C1147.1,293.4,1147.1,293.3,1147.1,293.2z M1147.1,292c0,0,0.1-0.1,0.1-0.1C1147.2,291.9,1147.2,292,1147.1,292z M1147.3,293.8&#10;&#9;&#9;&#9;&#9;c0,0.1,0.1,0.2,0.1,0.3C1147.4,294,1147.3,293.9,1147.3,293.8z M1147.4,291.6c0,0,0.1-0.1,0.1-0.1&#10;&#9;&#9;&#9;&#9;C1147.5,291.5,1147.5,291.6,1147.4,291.6z M1147.7,294.5c0.1,0.1,0.1,0.2,0.2,0.3C1147.8,294.7,1147.7,294.6,1147.7,294.5z&#10;&#9;&#9;&#9;&#9; M1147.9,291.2c0.1-0.1,0.1-0.1,0.2-0.2C1148,291.1,1147.9,291.2,1147.9,291.2z M1147.8,263.2c0.1,0,0.2,0,0.4-0.1&#10;&#9;&#9;&#9;&#9;C1148,263.2,1147.9,263.2,1147.8,263.2z M1148.2,295.3c0.1,0.1,0.2,0.2,0.3,0.4C1148.3,295.5,1148.2,295.4,1148.2,295.3z&#10;&#9;&#9;&#9;&#9; M1148.4,290.8c0.1-0.1,0.1-0.1,0.2-0.2C1148.5,290.7,1148.5,290.7,1148.4,290.8z M1148.8,296.1c0.1,0.1,0.2,0.3,0.3,0.4&#10;&#9;&#9;&#9;&#9;C1149,296.3,1148.9,296.2,1148.8,296.1z M1149.1,290.3c0.1,0,0.1-0.1,0.2-0.1C1149.2,290.2,1149.1,290.3,1149.1,290.3z&#10;&#9;&#9;&#9;&#9; M1149.4,262.9C1149.4,262.9,1149.4,262.9,1149.4,262.9C1149.4,262.9,1149.4,262.9,1149.4,262.9z M1149.5,297&#10;&#9;&#9;&#9;&#9;c0.1,0.1,0.2,0.3,0.4,0.4C1149.7,297.2,1149.6,297.1,1149.5,297z M1150,289.7c0,0-0.1,0-0.1,0.1&#10;&#9;&#9;&#9;&#9;C1150,289.8,1150,289.7,1150,289.7z M1150.3,297.9c0.1,0.1,0.3,0.3,0.4,0.4C1150.6,298.2,1150.4,298,1150.3,297.9z M1151.2,298.9&#10;&#9;&#9;&#9;&#9;c0.1,0.2,0.3,0.3,0.4,0.5C1151.5,299.2,1151.3,299,1151.2,298.9z M1152.2,299.9c0.2,0.2,0.3,0.3,0.5,0.5&#10;&#9;&#9;&#9;&#9;C1152.5,300.2,1152.3,300.1,1152.2,299.9z M1153.2,301c0.2,0.2,0.3,0.3,0.5,0.5C1153.6,301.3,1153.4,301.1,1153.2,301z&#10;&#9;&#9;&#9;&#9; M1154.4,302c0.2,0.2,0.4,0.3,0.5,0.5C1154.7,302.4,1154.6,302.2,1154.4,302z M1155.6,303.1c0.2,0.2,0.4,0.3,0.5,0.5&#10;&#9;&#9;&#9;&#9;C1155.9,303.5,1155.8,303.3,1155.6,303.1z M1156.8,304.3c0.2,0.2,0.4,0.3,0.6,0.5C1157.2,304.6,1157,304.4,1156.8,304.3z&#10;&#9;&#9;&#9;&#9; M1158.2,305.4c0.2,0.1,0.3,0.3,0.5,0.4C1158.5,305.7,1158.4,305.5,1158.2,305.4z M1159.6,306.5c0.2,0.1,0.3,0.2,0.5,0.4&#10;&#9;&#9;&#9;&#9;C1159.9,306.8,1159.8,306.7,1159.6,306.5z M1161.2,307.8c0.1,0.1,0.1,0.1,0.2,0.2C1161.4,307.9,1161.3,307.9,1161.2,307.8z&#10;&#9;&#9;&#9;&#9; M1162.9,309c0.1,0.1,0.3,0.2,0.4,0.3C1163.1,309.2,1163,309.1,1162.9,309z M1164.3,310c0.2,0.1,0.4,0.2,0.5,0.4&#10;&#9;&#9;&#9;&#9;C1164.7,310.3,1164.5,310.2,1164.3,310z M1165.7,311c0.2,0.1,0.4,0.3,0.6,0.4C1166.1,311.3,1165.9,311.1,1165.7,311z&#10;&#9;&#9;&#9;&#9; M1167.2,311.9c0.2,0.1,0.4,0.3,0.6,0.4C1167.6,312.2,1167.4,312.1,1167.2,311.9z M1168.6,312.8c0.2,0.1,0.4,0.2,0.6,0.4&#10;&#9;&#9;&#9;&#9;C1169,313,1168.8,312.9,1168.6,312.8z M1170,313.6c0.2,0.1,0.4,0.2,0.6,0.3C1170.5,313.8,1170.3,313.7,1170,313.6z M1171.5,314.3&#10;&#9;&#9;&#9;&#9;c0.2,0.1,0.4,0.2,0.6,0.3C1171.9,314.5,1171.7,314.4,1171.5,314.3z M1172.8,315c0.2,0.1,0.4,0.2,0.6,0.3&#10;&#9;&#9;&#9;&#9;C1173.3,315.2,1173,315.1,1172.8,315z M1174.2,315.5c0.2,0.1,0.4,0.2,0.6,0.2C1174.6,315.7,1174.4,315.6,1174.2,315.5z&#10;&#9;&#9;&#9;&#9; M1175.5,316c0.2,0.1,0.4,0.1,0.6,0.2C1175.9,316.1,1175.7,316.1,1175.5,316z M1176.8,316.4c0.2,0,0.4,0.1,0.6,0.1&#10;&#9;&#9;&#9;&#9;C1177.1,316.5,1177,316.4,1176.8,316.4z M1178,316.6c0.2,0,0.4,0.1,0.5,0.1C1178.3,316.7,1178.2,316.7,1178,316.6z M1179.1,316.8&#10;&#9;&#9;&#9;&#9;c0.2,0,0.3,0,0.5,0C1179.5,316.8,1179.3,316.8,1179.1,316.8z M1180.3,316.8c0.1,0,0.2,0,0.3,0&#10;&#9;&#9;&#9;&#9;C1180.5,316.8,1180.4,316.8,1180.3,316.8z M1179.8,314c-8.7,0-27-16-29.8-21c3.6-2.8,19.7-8.8,26.9-8.8c0.9,0,1.3,0.1,1.5,0.2&#10;&#9;&#9;&#9;&#9;c1.5,1.5,3.7,10.7,3.7,20.3c0,6.2-0.9,8.7-1.4,9.3C1180.4,314,1180.1,314,1179.8,314z M1181.6,316.6&#10;&#9;&#9;&#9;&#9;C1181.6,316.6,1181.6,316.6,1181.6,316.6C1181.6,316.6,1181.6,316.6,1181.6,316.6c0.2,0,0.4-0.1,0.5-0.2&#10;&#9;&#9;&#9;&#9;C1182,316.5,1181.8,316.5,1181.6,316.6z M1183.3,220.8c0.4,0.4,0.7,0.8,1.1,1.2C1184,221.6,1183.6,221.2,1183.3,220.8z&#10;&#9;&#9;&#9;&#9; M1191.4,273.3c1.3,0.4,2.7,0.6,4.1,0.6C1194.1,273.9,1192.7,273.7,1191.4,273.3z M1195.5,271.1c-6,0-10.9-4.9-10.9-10.9&#10;&#9;&#9;&#9;&#9;c0-6,4.9-10.9,10.9-10.9c6,0,10.9,4.9,10.9,10.9C1206.3,266.2,1201.5,271.1,1195.5,271.1z M1203.9,271c-0.6,0.5-1.2,0.9-1.9,1.3&#10;&#9;&#9;&#9;&#9;C1202.7,271.9,1203.3,271.5,1203.9,271z M1234.3,198.3c1.4,0.9,2.8,1.8,4.2,2.8c0.7,0.5,1.4,1,2,1.5c2.7,2,5.2,4.3,7.5,6.7&#10;&#9;&#9;&#9;&#9;c1.8,1.8,3.4,3.7,5,5.6c1,1.3,2,2.7,3,4c0.5,0.7,0.9,1.4,1.4,2.1c2.3,3.5,4.2,7.3,5.9,11.2c0.3,0.8,0.6,1.6,0.9,2.4&#10;&#9;&#9;&#9;&#9;c1.5,4,2.7,8.1,3.4,12.4c0.5,2.6,0.8,5.2,1,7.8c0.1,1.8,0.2,3.6,0.2,5.4c0,40.2-32.6,72.7-72.7,72.7c40.2,0,72.7-32.6,72.7-72.7&#10;&#9;&#9;&#9;&#9;c0-1.8-0.1-3.6-0.2-5.4c-0.2-2.7-0.5-5.3-1-7.8c-0.8-4.3-1.9-8.4-3.4-12.4c-0.3-0.8-0.6-1.6-0.9-2.4c-1.6-3.9-3.6-7.7-5.9-11.2&#10;&#9;&#9;&#9;&#9;c-0.5-0.7-0.9-1.4-1.4-2.1c-1-1.4-2-2.7-3-4c-1.6-2-3.2-3.8-5-5.6c-2.3-2.4-4.9-4.6-7.5-6.7c-0.7-0.5-1.3-1-2-1.5&#10;&#9;&#9;&#9;&#9;C1237.1,200.2,1235.7,199.2,1234.3,198.3c-2.1-1.3-4.4-2.5-6.6-3.6C1229.9,195.8,1232.1,197,1234.3,198.3z M1210.3,317.9&#10;&#9;&#9;&#9;&#9;c0,0,0.1,0,0.1,0C1210.4,317.9,1210.3,317.9,1210.3,317.9z M1210.7,317.9c0.1,0,0.2,0,0.3,0&#10;&#9;&#9;&#9;&#9;C1210.9,317.9,1210.8,317.9,1210.7,317.9z M1211.4,317.8c0.1,0,0.2,0,0.3-0.1C1211.6,317.8,1211.5,317.8,1211.4,317.8z&#10;&#9;&#9;&#9;&#9; M1212.1,317.7c0.1,0,0.2-0.1,0.4-0.1C1212.3,317.6,1212.2,317.6,1212.1,317.7z M1212.9,317.4c0.1-0.1,0.3-0.1,0.4-0.2&#10;&#9;&#9;&#9;&#9;C1213.2,317.3,1213.1,317.3,1212.9,317.4z M1213.9,317c0.2-0.1,0.3-0.1,0.5-0.2C1214.2,316.9,1214,316.9,1213.9,317z&#10;&#9;&#9;&#9;&#9; M1214.9,316.6c0.2-0.1,0.3-0.2,0.5-0.2C1215.2,316.4,1215.1,316.5,1214.9,316.6z M1216,316c0.2-0.1,0.4-0.2,0.6-0.3&#10;&#9;&#9;&#9;&#9;C1216.4,315.8,1216.2,315.9,1216,316z M1217.2,315.4c0.2-0.1,0.4-0.2,0.6-0.3C1217.6,315.2,1217.4,315.3,1217.2,315.4z&#10;&#9;&#9;&#9;&#9; M1218.4,314.7c0.2-0.1,0.4-0.2,0.6-0.4C1218.8,314.5,1218.6,314.6,1218.4,314.7z M1219.7,314c0.2-0.1,0.4-0.3,0.6-0.4&#10;&#9;&#9;&#9;&#9;C1220.1,313.7,1219.9,313.9,1219.7,314z M1221,313.2c0.2-0.1,0.4-0.3,0.6-0.4C1221.4,312.9,1221.2,313,1221,313.2z M1222.4,312.3&#10;&#9;&#9;&#9;&#9;c0.3-0.2,0.6-0.4,0.9-0.6C1223,311.9,1222.7,312.1,1222.4,312.3z M1224.4,310.9c0.2-0.1,0.4-0.3,0.6-0.5&#10;&#9;&#9;&#9;&#9;C1224.8,310.6,1224.6,310.8,1224.4,310.9z M1225.8,310c0.2-0.2,0.4-0.3,0.7-0.5C1226.2,309.6,1226,309.8,1225.8,310z&#10;&#9;&#9;&#9;&#9; M1227.2,308.9c0.2-0.2,0.4-0.3,0.7-0.5C1227.6,308.6,1227.4,308.8,1227.2,308.9z M1228.6,307.8c0.2-0.2,0.4-0.3,0.7-0.5&#10;&#9;&#9;&#9;&#9;C1229,307.5,1228.8,307.7,1228.6,307.8z M1230,306.8c0.2-0.2,0.4-0.4,0.6-0.5C1230.4,306.4,1230.2,306.6,1230,306.8z&#10;&#9;&#9;&#9;&#9; M1231.3,305.6c0.2-0.2,0.4-0.4,0.6-0.5C1231.7,305.3,1231.5,305.4,1231.3,305.6z M1232.6,304.5c0.2-0.2,0.4-0.4,0.6-0.6&#10;&#9;&#9;&#9;&#9;C1233,304.1,1232.8,304.3,1232.6,304.5z M1233.9,303.3c0.2-0.2,0.4-0.4,0.6-0.6C1234.3,302.9,1234.1,303.1,1233.9,303.3z&#10;&#9;&#9;&#9;&#9; M1235.1,302.1c0.2-0.2,0.4-0.4,0.6-0.6C1235.5,301.8,1235.3,302,1235.1,302.1z M1236.3,301c0.2-0.2,0.3-0.4,0.5-0.6&#10;&#9;&#9;&#9;&#9;C1236.6,300.6,1236.4,300.8,1236.3,301z M1237.3,299.8c0.2-0.2,0.3-0.4,0.5-0.5C1237.7,299.4,1237.5,299.6,1237.3,299.8z&#10;&#9;&#9;&#9;&#9; M1238.3,298.6c0.1-0.2,0.3-0.4,0.4-0.5C1238.6,298.2,1238.5,298.4,1238.3,298.6z M1239.6,296.9c-0.1,0.2-0.3,0.4-0.4,0.5&#10;&#9;&#9;&#9;&#9;C1239.4,297.3,1239.5,297.1,1239.6,296.9z M1239.4,287.2c0,0,0.1,0.1,0.1,0.1C1239.5,287.2,1239.4,287.2,1239.4,287.2z&#10;&#9;&#9;&#9;&#9; M1240.1,261.3c0.1,0,0.3,0.1,0.4,0.1C1240.3,261.3,1240.2,261.3,1240.1,261.3z M1240.3,287.8c-0.1-0.1-0.1-0.1-0.2-0.2&#10;&#9;&#9;&#9;&#9;C1240.2,287.7,1240.3,287.7,1240.3,287.8z M1240.4,295.8c-0.1,0.2-0.2,0.3-0.3,0.5C1240.1,296.1,1240.2,295.9,1240.4,295.8z&#10;&#9;&#9;&#9;&#9; M1241,294.6c-0.1,0.2-0.2,0.3-0.3,0.5C1240.8,295,1240.9,294.8,1241,294.6z M1240.8,288.1c0.1,0,0.1,0.1,0.2,0.1&#10;&#9;&#9;&#9;&#9;C1240.9,288.2,1240.8,288.2,1240.8,288.1z M1241.5,293.5c-0.1,0.2-0.1,0.3-0.2,0.5C1241.4,293.9,1241.4,293.7,1241.5,293.5z&#10;&#9;&#9;&#9;&#9; M1241.4,288.8C1241.5,288.8,1241.5,288.8,1241.4,288.8C1241.5,288.8,1241.5,288.8,1241.4,288.8z M1241.8,261.7&#10;&#9;&#9;&#9;&#9;C1241.8,261.7,1241.8,261.7,1241.8,261.7C1241.8,261.7,1241.8,261.7,1241.8,261.7z M1241.9,289.4c0-0.1-0.1-0.1-0.1-0.2&#10;&#9;&#9;&#9;&#9;C1241.8,289.3,1241.9,289.4,1241.9,289.4z M1241.9,292.5c0,0.1-0.1,0.3-0.2,0.4C1241.8,292.8,1241.8,292.6,1241.9,292.5z&#10;&#9;&#9;&#9;&#9; M1242.1,291.4c0,0.1-0.1,0.2-0.1,0.4C1242,291.7,1242.1,291.6,1242.1,291.4z M1242.1,289.8c0,0.1,0,0.1,0.1,0.2&#10;&#9;&#9;&#9;&#9;C1242.1,289.9,1242.1,289.8,1242.1,289.8z M1242.2,290.4C1242.2,290.4,1242.2,290.4,1242.2,290.4&#10;&#9;&#9;&#9;&#9;C1242.2,290.5,1242.2,290.5,1242.2,290.4C1242.2,290.5,1242.2,290.5,1242.2,290.4C1242.2,290.4,1242.2,290.4,1242.2,290.4z&#10;&#9;&#9;&#9;&#9; M1243.1,262c0.1,0,0.3,0.1,0.4,0.1C1243.4,262.1,1243.2,262,1243.1,262z M1244.4,262.3c0.2,0,0.3,0.1,0.5,0.1&#10;&#9;&#9;&#9;&#9;C1244.7,262.3,1244.5,262.3,1244.4,262.3z M1245.6,262.5c0.2,0,0.3,0.1,0.5,0.1C1245.9,262.6,1245.8,262.5,1245.6,262.5z&#10;&#9;&#9;&#9;&#9; M1246.8,262.7c0.1,0,0.3,0,0.4,0.1C1247.1,262.8,1247,262.7,1246.8,262.7z M1248,262.9c0.1,0,0.2,0,0.4,0.1&#10;&#9;&#9;&#9;&#9;C1248.2,262.9,1248.1,262.9,1248,262.9z M1249.3,263.1c0,0,0.1,0,0.1,0C1249.4,263.1,1249.3,263.1,1249.3,263.1z M1250.4,263.2&#10;&#9;&#9;&#9;&#9;c0.1,0,0.2,0,0.3,0C1250.6,263.2,1250.5,263.2,1250.4,263.2z M1251.3,263.2c0.1,0,0.2,0,0.3,0&#10;&#9;&#9;&#9;&#9;C1251.5,263.2,1251.4,263.2,1251.3,263.2z M1253.9,251.1c-0.3-1.4-0.7-2.8-1-4.3c-0.3-1.1-0.6-2.3-1-3.4c0.4,1.1,0.7,2.3,1,3.4&#10;&#9;&#9;&#9;&#9;C1253.3,248.3,1253.6,249.7,1253.9,251.1c1.3,6,1.6,10.8,0.5,11.7c-0.1,0.1-0.2,0.2-0.4,0.2c0.2-0.1,0.3-0.1,0.4-0.2&#10;&#9;&#9;&#9;&#9;C1255.5,261.9,1255.2,257.1,1253.9,251.1z M1253.9,263c-0.1,0-0.2,0.1-0.4,0.1C1253.7,263.1,1253.8,263.1,1253.9,263z&#10;&#9;&#9;&#9;&#9; M1253.3,263.2c-0.1,0-0.3,0-0.4,0.1C1253,263.2,1253.1,263.2,1253.3,263.2z M1252.1,263.2c0.2,0,0.3,0,0.5,0&#10;&#9;&#9;&#9;&#9;C1252.4,263.2,1252.2,263.2,1252.1,263.2z M1239.6,223.2c-0.2-0.1-0.4-0.1-0.6-0.1C1239.2,223.1,1239.4,223.1,1239.6,223.2z&#10;&#9;&#9;&#9;&#9; M1238.6,223.1c-0.1,0-0.2,0-0.3,0C1238.4,223.1,1238.5,223.1,1238.6,223.1z M1238,223.3c-0.1,0-0.2,0.1-0.3,0.1&#10;&#9;&#9;&#9;&#9;C1237.8,223.3,1237.9,223.3,1238,223.3z M1237.3,223.5c-0.1,0-0.2,0.1-0.3,0.1C1237.1,223.6,1237.2,223.6,1237.3,223.5z&#10;&#9;&#9;&#9;&#9; M1236.6,224c-0.1,0.1-0.2,0.1-0.3,0.2C1236.4,224.1,1236.5,224,1236.6,224z M1235.8,224.6c-0.1,0-0.1,0.1-0.2,0.1&#10;&#9;&#9;&#9;&#9;C1235.6,224.7,1235.7,224.6,1235.8,224.6z M1234.8,225.4c-0.1,0.1-0.2,0.2-0.2,0.2C1234.7,225.5,1234.7,225.5,1234.8,225.4z&#10;&#9;&#9;&#9;&#9; M1234,226.2c-0.1,0.1-0.2,0.2-0.3,0.4C1233.8,226.4,1233.9,226.3,1234,226.2z M1233.3,227c-0.1,0.1-0.2,0.3-0.3,0.4&#10;&#9;&#9;&#9;&#9;C1233,227.3,1233.1,227.2,1233.3,227z M1232.5,228c-0.1,0.1-0.2,0.3-0.4,0.4C1232.2,228.3,1232.3,228.1,1232.5,228z M1231.7,229&#10;&#9;&#9;&#9;&#9;c-0.1,0.2-0.2,0.3-0.4,0.5C1231.4,229.3,1231.5,229.2,1231.7,229z M1230.9,230.1c-0.1,0.2-0.2,0.3-0.4,0.5&#10;&#9;&#9;&#9;&#9;C1230.6,230.4,1230.7,230.3,1230.9,230.1z M1230.1,231.3c-0.1,0.2-0.2,0.4-0.4,0.5C1229.8,231.6,1229.9,231.4,1230.1,231.3z&#10;&#9;&#9;&#9;&#9; M1229.3,232.4c-0.1,0.2-0.2,0.4-0.4,0.6C1229,232.8,1229.1,232.6,1229.3,232.4z M1228.5,233.7c-0.1,0.2-0.2,0.4-0.4,0.6&#10;&#9;&#9;&#9;&#9;C1228.2,234.1,1228.4,233.9,1228.5,233.7z M1227.7,234.9c-0.1,0.2-0.2,0.4-0.3,0.6C1227.5,235.3,1227.6,235.1,1227.7,234.9z&#10;&#9;&#9;&#9;&#9; M1227,236.2c-0.1,0.2-0.2,0.4-0.3,0.6C1226.8,236.6,1226.9,236.4,1227,236.2z M1226.3,237.5c-0.1,0.2-0.2,0.4-0.3,0.6&#10;&#9;&#9;&#9;&#9;C1226.1,237.9,1226.2,237.7,1226.3,237.5z M1225.6,238.8c-0.1,0.2-0.2,0.4-0.3,0.6C1225.4,239.2,1225.5,239,1225.6,238.8z&#10;&#9;&#9;&#9;&#9; M1224.9,240.1c-0.1,0.2-0.2,0.4-0.3,0.6C1224.7,240.5,1224.8,240.3,1224.9,240.1z M1224.3,241.4c-0.1,0.2-0.2,0.4-0.3,0.6&#10;&#9;&#9;&#9;&#9;C1224.1,241.8,1224.2,241.6,1224.3,241.4z M1232.4,232.8c3.5-5.1,5.7-6.6,6.4-6.9c3.1,1.3,7,7.9,10,16.9&#10;&#9;&#9;&#9;&#9;c2.8,8.3,3.7,15.2,3.5,17.6c-0.1,0-0.2,0-0.4,0c-7.6,0-25.9-5.8-27.9-8.8C1223.7,249.5,1227,240.7,1232.4,232.8z M1239.1,261&#10;&#9;&#9;&#9;&#9;c-0.2,0-0.3-0.1-0.5-0.1C1238.8,260.9,1239,261,1239.1,261z M1238.6,286.7c-0.1,0-0.2-0.1-0.3-0.1&#10;&#9;&#9;&#9;&#9;C1238.4,286.7,1238.5,286.7,1238.6,286.7z M1237.2,260.5c0.2,0.1,0.4,0.1,0.5,0.2C1237.6,260.6,1237.4,260.5,1237.2,260.5z&#10;&#9;&#9;&#9;&#9; M1237.7,286.3c-0.1,0-0.2-0.1-0.3-0.1C1237.4,286.2,1237.6,286.3,1237.7,286.3z M1236.6,285.8c-0.1,0-0.2-0.1-0.2-0.1&#10;&#9;&#9;&#9;&#9;C1236.4,285.8,1236.5,285.8,1236.6,285.8z M1235.9,260.1c0.2,0.1,0.3,0.1,0.5,0.2C1236.2,260.2,1236.1,260.1,1235.9,260.1z&#10;&#9;&#9;&#9;&#9; M1235.3,285.4c-0.1,0-0.2-0.1-0.3-0.1C1235.1,285.3,1235.2,285.3,1235.3,285.4z M1234.6,259.7c0.2,0,0.3,0.1,0.5,0.1&#10;&#9;&#9;&#9;&#9;C1234.9,259.8,1234.7,259.7,1234.6,259.7z M1234.1,285c-0.1,0-0.3-0.1-0.4-0.1C1233.9,284.9,1234,284.9,1234.1,285z&#10;&#9;&#9;&#9;&#9; M1233.5,259.3c-0.1,0-0.2-0.1-0.3-0.1C1233.4,259.3,1233.4,259.3,1233.5,259.3z M1232.9,284.6c-0.1,0-0.2-0.1-0.3-0.1&#10;&#9;&#9;&#9;&#9;C1232.6,284.5,1232.7,284.6,1232.9,284.6z M1232,258.8c-0.1,0-0.2-0.1-0.3-0.1C1231.8,258.7,1231.9,258.8,1232,258.8z&#10;&#9;&#9;&#9;&#9; M1231.3,284.2c-0.1,0-0.2,0-0.3-0.1C1231.1,284.1,1231.2,284.1,1231.3,284.2z M1230.7,258.3c-0.1-0.1-0.3-0.1-0.4-0.2&#10;&#9;&#9;&#9;&#9;C1230.5,258.2,1230.6,258.3,1230.7,258.3z M1230,283.8c-0.1,0-0.3-0.1-0.4-0.1C1229.7,283.8,1229.9,283.8,1230,283.8z&#10;&#9;&#9;&#9;&#9; M1229.5,257.9c-0.2-0.1-0.3-0.1-0.5-0.2C1229.2,257.7,1229.4,257.8,1229.5,257.9z M1228.6,283.5c-0.1,0-0.3-0.1-0.4-0.1&#10;&#9;&#9;&#9;&#9;C1228.4,283.5,1228.5,283.5,1228.6,283.5z M1227.9,257.2c0.1,0.1,0.3,0.1,0.4,0.2C1228.2,257.3,1228.1,257.3,1227.9,257.2z&#10;&#9;&#9;&#9;&#9; M1226.9,256.7c0.1,0.1,0.3,0.1,0.4,0.2C1227.1,256.8,1227,256.8,1226.9,256.7z M1226.9,283.2c-0.1,0-0.2,0-0.2,0&#10;&#9;&#9;&#9;&#9;C1226.8,283.2,1226.8,283.2,1226.9,283.2z M1226.1,256.3c-0.1,0-0.2-0.1-0.3-0.1C1226,256.3,1226.1,256.3,1226.1,256.3z&#10;&#9;&#9;&#9;&#9; M1225.6,283c-0.1,0-0.3,0-0.4-0.1C1225.3,282.9,1225.4,282.9,1225.6,283z M1225,255.7c-0.1,0-0.1-0.1-0.1-0.1&#10;&#9;&#9;&#9;&#9;C1224.9,255.7,1224.9,255.7,1225,255.7z M1224.1,255.2c-0.1-0.1-0.2-0.1-0.3-0.2C1224,255.1,1224,255.2,1224.1,255.2z&#10;&#9;&#9;&#9;&#9; M1224.2,282.7c-0.1,0-0.3,0-0.4-0.1C1223.9,282.7,1224,282.7,1224.2,282.7z M1223.7,242.7c-0.1,0.2-0.2,0.4-0.2,0.6&#10;&#9;&#9;&#9;&#9;C1223.6,243.1,1223.7,242.9,1223.7,242.7z M1223.2,243.9c-0.1,0.2-0.2,0.4-0.2,0.6C1223.1,244.3,1223.1,244.1,1223.2,243.9z&#10;&#9;&#9;&#9;&#9; M1223.4,254.7c-0.1-0.1-0.2-0.1-0.3-0.2C1223.2,254.6,1223.3,254.7,1223.4,254.7z M1222.8,245.1c-0.1,0.2-0.1,0.4-0.2,0.5&#10;&#9;&#9;&#9;&#9;C1222.6,245.5,1222.7,245.3,1222.8,245.1z M1222.7,254.2c-0.1-0.1-0.2-0.1-0.2-0.2C1222.6,254.1,1222.7,254.2,1222.7,254.2z&#10;&#9;&#9;&#9;&#9; M1222.3,246.3c-0.1,0.2-0.1,0.3-0.2,0.5C1222.2,246.6,1222.3,246.5,1222.3,246.3z M1222.4,282.5c0,0-0.1,0-0.1,0&#10;&#9;&#9;&#9;&#9;C1222.3,282.5,1222.4,282.5,1222.4,282.5z M1222.2,253.7c-0.1-0.1-0.1-0.1-0.2-0.2C1222.1,253.6,1222.1,253.7,1222.2,253.7z&#10;&#9;&#9;&#9;&#9; M1222,247.4c0,0.2-0.1,0.3-0.1,0.5C1221.9,247.7,1221.9,247.6,1222,247.4z M1221.7,248.5c0,0.1-0.1,0.3-0.1,0.4&#10;&#9;&#9;&#9;&#9;C1221.6,248.7,1221.6,248.6,1221.7,248.5z M1221.8,253.2c0-0.1-0.1-0.1-0.1-0.2C1221.7,253.1,1221.7,253.2,1221.8,253.2z&#10;&#9;&#9;&#9;&#9; M1221.5,249.4c0,0.1-0.1,0.3-0.1,0.4C1221.4,249.7,1221.4,249.6,1221.5,249.4z M1221.3,250.3c0,0.1,0,0.2,0,0.3&#10;&#9;&#9;&#9;&#9;C1221.3,250.6,1221.3,250.4,1221.3,250.3z M1221.3,252.1c0-0.1,0-0.1,0-0.2C1221.3,251.9,1221.3,252,1221.3,252.1z M1221.2,251.1&#10;&#9;&#9;&#9;&#9;c0,0.1,0,0.2,0,0.3C1221.2,251.3,1221.2,251.2,1221.2,251.1z M1221.1,282.3c-0.1,0-0.3,0-0.4,0&#10;&#9;&#9;&#9;&#9;C1220.8,282.3,1221,282.3,1221.1,282.3z M1219.8,282.2c-0.1,0-0.3,0-0.4,0C1219.5,282.2,1219.6,282.2,1219.8,282.2z&#10;&#9;&#9;&#9;&#9; M1218.1,282.1C1218.1,282.1,1218.1,282.1,1218.1,282.1C1218.1,282.1,1218.1,282.1,1218.1,282.1z M1216.6,203.1&#10;&#9;&#9;&#9;&#9;c0-0.1-0.1-0.3-0.2-0.4C1216.5,202.8,1216.6,202.9,1216.6,203.1z M1216.9,282c-0.1,0-0.2,0-0.4,0&#10;&#9;&#9;&#9;&#9;C1216.7,282,1216.8,282,1216.9,282z M1216.2,202.6c-0.1-0.1-0.2-0.2-0.3-0.3C1216,202.4,1216.1,202.5,1216.2,202.6z&#10;&#9;&#9;&#9;&#9; M1215.7,202.1c-0.1-0.1-0.3-0.2-0.4-0.2C1215.4,202,1215.5,202.1,1215.7,202.1z M1215.7,282c-0.1,0-0.2,0-0.4,0&#10;&#9;&#9;&#9;&#9;C1215.4,282,1215.6,282,1215.7,282z M1239.4,290.6c-0.2,3.3-5.1,9.2-12.6,15.1c-6.9,5.4-13.1,8.6-15.4,9.3&#10;&#9;&#9;&#9;&#9;c-0.8-2-1.9-7.4-2.3-14.6c-0.5-9.4,0.5-14.1,1.1-15c0.3-0.1,1.5-0.6,4.9-0.6C1225.7,284.8,1237.9,288.4,1239.4,290.6z&#10;&#9;&#9;&#9;&#9; M1214.9,201.8c-0.2-0.1-0.4-0.2-0.6-0.2C1214.6,201.6,1214.7,201.7,1214.9,201.8z M1214.6,282c-0.2,0-0.4,0-0.6,0&#10;&#9;&#9;&#9;&#9;C1214.3,282,1214.5,282,1214.6,282z M1214,201.4c-0.2-0.1-0.5-0.2-0.7-0.3C1213.5,201.2,1213.8,201.3,1214,201.4z M1212.9,201&#10;&#9;&#9;&#9;&#9;c-0.4-0.1-0.8-0.2-1.2-0.4C1212.1,200.8,1212.5,200.9,1212.9,201z M1211.6,200.6c-0.4-0.1-0.9-0.2-1.3-0.3&#10;&#9;&#9;&#9;&#9;C1210.8,200.4,1211.2,200.5,1211.6,200.6z M1209.8,200.2c-0.3-0.1-0.7-0.1-1-0.2C1209.2,200.1,1209.5,200.1,1209.8,200.2z&#10;&#9;&#9;&#9;&#9; M1208.2,199.9c-0.3-0.1-0.7-0.1-1-0.2C1207.5,199.8,1207.9,199.8,1208.2,199.9z M1206.5,199.6c-0.4-0.1-0.7-0.1-1.1-0.2&#10;&#9;&#9;&#9;&#9;C1205.8,199.5,1206.2,199.5,1206.5,199.6z M1204.8,199.3c-0.4-0.1-0.8-0.1-1.3-0.2C1203.9,199.2,1204.4,199.3,1204.8,199.3z&#10;&#9;&#9;&#9;&#9; M1203,199.1c-0.6-0.1-1.2-0.1-1.9-0.2C1201.7,199,1202.3,199,1203,199.1z M1200.9,198.9c-0.6-0.1-1.2-0.1-1.8-0.1&#10;&#9;&#9;&#9;&#9;C1199.8,198.8,1200.4,198.8,1200.9,198.9z M1198.5,198.7c-0.4,0-0.9-0.1-1.3-0.1C1197.7,198.6,1198.1,198.7,1198.5,198.7z&#10;&#9;&#9;&#9;&#9; M1195.2,198.5c0.4,0,0.8,0,1.2,0C1196.1,198.6,1195.6,198.5,1195.2,198.5z"/>
		</g></svg>