<?xml version="1.0" encoding="UTF-8"?>
<svg xmlns="http://www.w3.org/2000/svg" xmlns:xlink="http://www.w3.org/1999/xlink" width="3213" height="3000" viewBox="0 0 3213 3000">
<path fill-rule="nonzero" fill="rgb(0%, 0%, 0%)" fill-opacity="1" d="M 533.34375 2991.726562 C 533.34375 2980.855469 741.828125 2343.308594 826.066406 2096.578125 L 892.003906 1903.449219 L 835.746094 1857.46875 C 664.433594 1717.480469 2.144531 1128.941406 0.00390625 1114.789062 C -1.109375 1107.46875 427.121094 1072.089844 849.808594 1044.578125 C 965.847656 1037.03125 1087 1027.398438 1119.050781 1023.191406 L 1177.308594 1015.53125 L 1241.46875 864.96875 C 1403.089844 485.660156 1533.160156 164.621094 1567.320312 60.628906 C 1588.058594 -2.449219 1594.660156 -11.398438 1603.71875 11.410156 C 1609.808594 26.730469 1688.03125 223.859375 1777.550781 449.46875 C 1867.070312 675.070312 1956.101562 894.148438 1975.398438 936.308594 L 2010.488281 1012.949219 L 2112.308594 1022.140625 C 2300.730469 1039.160156 3127.960938 1101 3170.570312 1101.25 L 3212.769531 1101.511719 L 3163.539062 1139.960938 C 3136.460938 1161.109375 3031.269531 1252.339844 2929.769531 1342.691406 C 2659.769531 1583.070312 2381.089844 1826.46875 2331.121094 1865.589844 L 2287.488281 1899.730469 L 2471.621094 2450.796875 C 2572.890625 2753.882812 2651.128906 2999.863281 2645.488281 2997.414062 C 2639.851562 2994.96875 2403.320312 2874.65625 2119.859375 2730.050781 L 1604.480469 2467.136719 L 1431.089844 2559.972656 C 1260.339844 2651.398438 554.914062 3000 540.65625 3000 C 536.632812 3000 533.34375 2996.277344 533.34375 2991.726562 Z M 1874.128906 1952.28125 L 1821.488281 1772.878906 L 1856.988281 1742.960938 C 1876.511719 1726.5 1942.710938 1671.890625 2004.078125 1621.609375 L 2115.679688 1530.179688 L 1920.691406 1516.121094 L 1725.710938 1502.058594 L 1669.738281 1347.339844 C 1638.949219 1262.238281 1608.96875 1176.800781 1603.101562 1157.460938 C 1592.5 1122.511719 1592.308594 1122.601562 1571.5 1171.519531 C 1559.988281 1198.601562 1533.371094 1280.878906 1512.359375 1354.371094 C 1491.339844 1427.859375 1467.851562 1494.320312 1460.160156 1502.058594 C 1452.46875 1509.789062 1369.390625 1518.398438 1275.53125 1521.191406 L 1104.878906 1526.269531 L 1160.191406 1574.160156 C 1190.609375 1600.5 1258.308594 1655.179688 1310.609375 1695.679688 C 1370.621094 1742.121094 1403.480469 1777.078125 1399.648438 1790.390625 C 1391.859375 1817.46875 1343.589844 1974.738281 1316.539062 2061.148438 C 1304.980469 2098.066406 1301.601562 2127.957031 1308.980469 2127.957031 C 1316.339844 2127.957031 1385.039062 2080.488281 1461.648438 2022.46875 C 1538.261719 1964.449219 1604.089844 1916.980469 1607.929688 1916.980469 C 1611.769531 1916.980469 1682.769531 1967.589844 1765.71875 2029.449219 C 1848.660156 2091.3125 1918.828125 2139.617188 1921.640625 2136.796875 C 1924.46875 2133.980469 1903.078125 2050.945312 1874.128906 1952.28125 Z M 1874.128906 1952.28125 "/>
</svg>
